<svg xmlns="http://www.w3.org/2000/svg" viewBox="0 0 90 98">
  <defs>
    <linearGradient id="iconGrad" x1="0%" y1="0%" x2="100%" y2="100%">
      <stop offset="0%" style="stop-color:#4A90B8"/>
      <stop offset="100%" style="stop-color:#3A7CA5"/>
    </linearGradient>
  </defs>

  <!-- Shield / base shape -->
  <path d="M15 20 Q15 10 25 10 L65 10 Q75 10 75 20 L75 55 Q75 75 45 88 Q15 75 15 55 Z"
        fill="url(#iconGrad)" rx="4"/>

  <!-- Medical cross -->
  <rect x="37" y="22" width="16" height="40" rx="3" fill="#FFFFFF" opacity="0.95"/>
  <rect x="29" y="34" width="32" height="16" rx="3" fill="#FFFFFF" opacity="0.95"/>

  <!-- Small heart at bottom of shield -->
  <path d="M45 70 C45 70 38 64 38 60 C38 57 41 55 45 58 C49 55 52 57 52 60 C52 64 45 70 45 70Z"
        fill="#FFFFFF" opacity="0.8"/>
</svg>
